<svg xmlns="http://www.w3.org/2000/svg" width="1600" height="520" viewBox="0 0 1600 520" role="img" aria-label="Commenda Operations Knowledge Base">
  <rect width="1600" height="520" fill="#F7F4EF"/>
  <rect width="1600" height="18" fill="#111827"/>
  <circle cx="1230" cy="168" r="218" fill="#16A34A" opacity=".13"/>
  <circle cx="1350" cy="314" r="185" fill="#2563EB" opacity=".10"/>
  <rect x="1054" y="118" width="298" height="72" rx="10" fill="#FFFFFF" stroke="#D6D3CC"/>
  <rect x="1084" y="148" width="64" height="12" rx="6" fill="#111827"/>
  <rect x="1165" y="148" width="144" height="12" rx="6" fill="#16A34A"/>
  <rect x="1054" y="214" width="360" height="72" rx="10" fill="#FFFFFF" stroke="#D6D3CC"/>
  <rect x="1084" y="244" width="80" height="12" rx="6" fill="#111827"/>
  <rect x="1184" y="244" width="190" height="12" rx="6" fill="#2563EB"/>
  <rect x="1054" y="310" width="254" height="72" rx="10" fill="#FFFFFF" stroke="#D6D3CC"/>
  <rect x="1084" y="340" width="72" height="12" rx="6" fill="#111827"/>
  <rect x="1174" y="340" width="88" height="12" rx="6" fill="#16A34A"/>
  <text x="96" y="185" font-family="Arial, Helvetica, sans-serif" font-size="86" font-weight="700" fill="#111827" letter-spacing="0">Commenda</text>
  <text x="100" y="251" font-family="Arial, Helvetica, sans-serif" font-size="31" fill="#3D3D3D">Versioned SOPs, process notes, and agent-ready operating knowledge</text>
  <rect x="100" y="323" width="264" height="44" rx="4" fill="#16A34A"/>
  <text x="124" y="352" font-family="Arial, Helvetica, sans-serif" font-size="18" font-weight="700" fill="#FFFFFF">Operations knowledge base</text>
</svg>
